<svg xmlns="http://www.w3.org/2000/svg" version="1.1" xmlns:xlink="http://www.w3.org/1999/xlink" xmlns:svgjs="http://svgjs.dev/svgjs" width="100%" height="100%" viewBox="0 0 1000 600"><rect width="1000" height="600" x="0" y="0" fill="#ee4e34"/><g><circle r="166.66666666666666" cx="374.71251932779944" cy="396.934767759184" fill="#fcedda" transform="matrix(0.6008289562005079,0,0,0.6008289562005079,0,61.51008484602032)"/><path d="M305.160316579933 404.84976766449927L305.160316579933 404.84976766449927Q280.40275818057387 397.74765701767853 269.1078352241842 387.3654551082698Q257.84143480051273 376.9832531988612 257.84143480051273 361.752220727366L257.84143480051273 361.752220727366Q257.84143480051273 344.4960884328819 271.6178181033819 333.20116547649224Q285.4227239389693 321.9347650528207 307.4706417301036 321.9347650528207L307.4706417301036 321.9347650528207Q322.5305390052898 321.9347650528207 334.31034501788804 327.7533617273245Q346.09015103048637 333.5719584018282 352.5362434247896 343.783025114928Q359.0108583518109 354.0226143607459 359.0108583518109 366.144690765962L359.0108583518109 366.144690765962L339.67258116890133 366.144690765962Q339.67258116890133 352.9102355847378 331.22991148432726 345.35176441442655Q322.8157643324713 337.7647707113971 307.4706417301036 337.7647707113971L307.4706417301036 337.7647707113971Q293.23789790374394 337.7647707113971 285.2515887426603 344.0397279093914Q277.29380211429486 350.3146851073856 277.29380211429486 361.4384728674664L277.29380211429486 361.4384728674664Q277.29380211429486 370.36602560824906 284.85227328460616 376.5268926753707Q292.43926698763556 382.68775974249235 310.63664286181887 387.82181563176033Q328.8340187360022 392.9273489883102 339.10213051453826 399.0882160554318Q349.39876482579245 405.2490831225535 354.36168551875153 413.4920950781005Q359.3246062117106 421.7065845009293 359.3246062117106 432.83037226101L359.3246062117106 432.83037226101Q359.3246062117106 450.57138761170285 345.4911778434051 461.2673373810112Q331.6292269423815 471.9347646176014 308.46893037523904 471.9347646176014L308.46893037523904 471.9347646176014Q293.437555632771 471.9347646176014 280.40275818057387 466.173213008534Q267.3679607283767 460.4116613994665 260.2943726142741 450.37172988267577Q253.2207845001715 440.3603208986031 253.2207845001715 427.6107487735875L253.2207845001715 427.6107487735875L272.5875842157992 427.6107487735875Q272.5875842157992 440.8452039548117 282.3708129381266 448.5177652559956Q292.12551912773586 456.1903265571795 308.46893037523904 456.1903265571795L308.46893037523904 456.1903265571795Q323.7284853794523 456.1903265571795 331.85740720412673 449.97241442462155Q339.9578064960829 443.7545022920636 339.9578064960829 433.03002999003706Q339.9578064960829 422.30555768801054 332.456380391208 416.42991594807046Q324.9264317536149 410.58279674084855 305.160316579933 404.84976766449927ZM496.2042407261397 323.9313423430916L496.2042407261397 469.9381873273305L476.83744101051195 469.9381873273305L403.3348741958248 357.41679575420636L403.3348741958248 469.9381873273305L383.99659701291523 469.9381873273305L383.99659701291523 323.9313423430916L403.3348741958248 323.9313423430916L477.03709873953903 436.9376169724244L477.03709873953903 323.9313423430916L496.2042407261397 323.9313423430916Z " fill="#ee4e34" transform="matrix(0.6008289562005079,0,0,0.6008289562005079,0,61.51008484602032)"/><path d="M674.6485281589397 407.43750783147834L674.6485281589397 407.43750783147834Q650.8459690759399 400.609354361816 639.9867370518986 390.627636036687Q629.1549273309481 380.64591771155807 629.1549273309481 366.0024078609568L629.1549273309481 366.0024078609568Q629.1549273309481 349.4119144908936 642.3998997239078 338.5526824668522Q655.6722944199582 327.72087274590183 676.8697347093118 327.72087274590183L676.8697347093118 327.72087274590183Q691.3487107413671 327.72087274590183 702.6741219179555 333.3150225764686Q713.9995330945442 338.9091724070354 720.1969735931133 348.72635691361825Q726.4218363947733 358.5709637232921 726.4218363947733 370.2254425369729L726.4218363947733 370.2254425369729L707.8295148990662 370.2254425369729Q707.8295148990662 357.5014939027426 699.7125131841261 350.234583583624Q691.6229337722771 342.94025096141434 676.8697347093118 342.94025096141434L676.8697347093118 342.94025096141434Q663.1860054668961 342.94025096141434 655.5077606014122 348.97315764143735Q647.8569380390195 355.00606432146037 647.8569380390195 365.70076252695566L647.8569380390195 365.70076252695566Q647.8569380390195 374.28394339444293 655.123848358138 380.20716086210183Q662.4181809803476 386.1303783297608 679.9136103524143 391.0663928861432Q697.4090397244811 395.97498513943464 707.2810688372458 401.8982026070936Q717.1805202531018 407.82142007475255 721.9520009909382 415.74646566805546Q726.7234817287746 423.6440889582674 726.7234817287746 434.3387871637627L726.7234817287746 434.3387871637627Q726.7234817287746 451.3954596863731 713.423664729633 461.6788233455032Q700.0964254274004 471.9347647015423 677.8295153174972 471.9347647015423L677.8295153174972 471.9347647015423Q663.3779615885331 471.9347647015423 650.8459690759399 466.39545947715754Q638.3139765633467 460.8561542527728 631.5132453967753 451.203503564736Q624.712514230204 441.57827517979024 624.712514230204 429.3205056981072L624.712514230204 429.3205056981072L643.3322580290022 429.3205056981072Q643.3322580290022 442.04445433233747 652.7381079892199 449.42105386382013Q662.1165356463465 456.7976533953028 677.8295153174972 456.7976533953028L677.8295153174972 456.7976533953028Q692.5004474711895 456.7976533953028 700.3158038521285 450.8195913214618Q708.1037379299763 444.8415292476208 708.1037379299763 434.53074328539975Q708.1037379299763 424.2199573231787 700.8916722170397 418.5709628864298Q693.6521842010121 412.94939075277205 674.6485281589397 407.43750783147834ZM742.9026405524725 418.15962834006467L742.9026405524725 416.898202397878Q742.9026405524725 401.5691349700014 748.9355472324954 389.31136548831836Q754.9684539125186 377.0810183097263 765.7179967241958 370.41739865861Q776.4675395358732 363.7812013105847 790.2609579906531 363.7812013105847L790.2609579906531 363.7812013105847Q811.5680874923706 363.7812013105847 824.7033706729661 378.53440037355Q837.8660761566526 393.28759943651534 837.8660761566526 417.77571609679046L837.8660761566526 417.77571609679046L837.8660761566526 419.00971973588605Q837.8660761566526 434.2565202544896 832.0525479013578 446.3497559176266Q826.2115973429719 458.4429915807636 815.3523653189305 465.18887814115294Q804.52055559798 471.9347647015423 790.4529141122902 471.9347647015423L790.4529141122902 471.9347647015423Q769.2280515198455 471.9347647015423 756.065346036159 457.18156563857696Q742.9026405524725 442.45578887870266 742.9026405524725 418.15962834006467L742.9026405524725 418.15962834006467ZM760.8368267739955 419.00971973588605L760.8368267739955 419.00971973588605Q760.8368267739955 436.36803759249767 768.8989838827534 446.8707796763559Q776.9337186884205 457.37352176021403 790.4529141122902 457.37352176021403L790.4529141122902 457.37352176021403Q804.0269541423419 457.37352176021403 812.0342666449177 446.7336681609008Q820.0415791474937 436.06639225849653 820.0415791474937 416.898202397878L820.0415791474937 416.898202397878Q820.0415791474937 399.7318406629035 811.8971551294627 389.09198706359024Q803.7527311114317 378.42471116118594 790.2609579906531 378.42471116118594L790.2609579906531 378.42471116118594Q777.0434079007845 378.42471116118594 768.9538284889355 388.92745324504415Q760.8368267739955 399.4576176319934 760.8368267739955 419.00971973588605ZM902.0891099958063 457.37352176021403L902.0891099958063 457.37352176021403Q911.6320714714792 457.37352176021403 918.7618702751428 451.6148381111012Q925.8916690788063 445.82873215889737 926.6594935653546 437.13586207904603L926.6594935653546 437.13586207904603L943.5242099663279 437.13586207904603Q943.0580308137806 446.10295518980746 937.3541917708498 454.1925346016565Q931.6777750310101 462.3095363165965 922.1896581615193 467.1358616606149Q912.6741189889377 471.9347647015423 902.0891099958063 471.9347647015423L902.0891099958063 471.9347647015423Q880.7819804940888 471.9347647015423 868.1951433753137 457.73001170039726Q855.6083062565384 443.4978363961612 855.6083062565384 418.817763614249L855.6083062565384 418.817763614249L855.6083062565384 415.8287325773285Q855.6083062565384 400.609354361816 861.2024560871051 388.7354971234071Q866.7966059176719 376.8890621880892 877.244503395348 370.33513174933694Q887.7198231761153 363.7812013105847 901.9794207834424 363.7812013105847L901.9794207834424 363.7812013105847Q919.5296947616911 363.7812013105847 931.1567512722808 374.28394339444293Q942.7563854797796 384.78668547830114 943.5242099663279 401.5691349700014L943.5242099663279 401.5691349700014L926.6594935653546 401.5691349700014Q925.8916690788063 391.4503051294174 919.0086710029617 384.9237969937562Q912.0982506240265 378.42471116118594 901.9794207834424 378.42471116118594L901.9794207834424 378.42471116118594Q888.3779584502996 378.42471116118594 880.919092009544 388.2144733646778Q873.4602255687881 398.0042355681697 873.4602255687881 416.5142901546038L873.4602255687881 416.5142901546038L873.4602255687881 419.8872334347985Q873.4602255687881 437.90368656559446 880.8642474033619 447.63860416290424Q888.2956915410267 457.37352176021403 902.0891099958063 457.37352176021403ZM982.9574818112054 365.70076252695566L982.9574818112054 470.0152034851713L965.1329848020467 470.0152034851713L965.1329848020467 365.70076252695566L982.9574818112054 365.70076252695566ZM963.679602738223 338.03165870812296L963.679602738223 338.03165870812296Q963.679602738223 333.6989348197428 966.3395661380513 330.7099037828223Q968.9995295378795 327.72087274590183 974.1823448220811 327.72087274590183Q979.3925824093736 327.72087274590183 982.107390415384 330.7099037828223Q984.7947761183033 333.6989348197428 984.7947761183033 338.03165870812296Q984.7947761183033 342.3643825965031 982.107390415384 345.2711467241505Q979.3925824093736 348.15048854870696 974.1823448220811 348.15048854870696Q968.9995295378795 348.15048854870696 966.3395661380513 345.2711467241505Q963.679602738223 342.3643825965031 963.679602738223 338.03165870812296ZM1094.593677694722 470.0152034851713L1075.8916669866503 470.0152034851713Q1074.3560180135537 466.9164832358868 1073.396237405368 459.0188599456749L1073.396237405368 459.0188599456749Q1060.946511802048 471.9347647015423 1043.6978831578003 471.9347647015423L1043.6978831578003 471.9347647015423Q1028.2865488206508 471.9347647015423 1018.3870974047951 463.2144723186Q1008.5150682920302 454.49417993565766 1008.5150682920302 441.08467372415197L1008.5150682920302 441.08467372415197Q1008.5150682920302 424.79582568808996 1020.9099492891681 415.77388797114645Q1033.2774079832152 406.77937255729404 1055.7636965178467 406.77937255729404L1055.7636965178467 406.77937255729404L1073.094592071367 406.77937255729404L1073.094592071367 398.5801039330809Q1073.094592071367 389.22909857904534 1067.5278645438912 383.6897933546606Q1061.9337147133247 378.15048813027585 1051.0196380831012 378.15048813027585L1051.0196380831012 378.15048813027585Q1041.4766766074285 378.15048813027585 1035.0324353810402 382.9493911712032Q1028.5607718515612 387.77571651522163 1028.5607718515612 394.631292287975L1028.5607718515612 394.631292287975L1010.6265856300382 394.631292287975Q1010.6265856300382 386.81593590703613 1016.1658908544229 379.5490255879175Q1021.7326183818988 372.2546929657079 1031.2207352513892 368.0042359866008Q1040.7088521208802 363.7812013105847 1052.0891079036505 363.7812013105847L1052.0891079036505 363.7812013105847Q1070.1055610344465 363.7812013105847 1080.3340800873948 372.77571672443713Q1090.5625991403426 381.79765444138064 1090.9465113836172 397.6203233248955L1090.9465113836172 397.6203233248955L1090.9465113836172 445.6367760372603Q1090.9465113836172 459.9786405538604 1094.593677694722 468.47955451207457L1094.593677694722 468.47955451207457L1094.593677694722 470.0152034851713ZM1046.3030019514467 456.4137411520286L1046.3030019514467 456.4137411520286Q1054.694226697297 456.4137411520286 1062.2079377442346 452.08101726364845Q1069.7216487911724 447.7482933752683 1073.094592071367 440.8104506932419L1073.094592071367 440.8104506932419L1073.094592071367 419.39363197916026L1059.1366397980414 419.39363197916026Q1026.339565301189 419.39363197916026 1026.339565301189 438.58924414286975L1026.339565301189 438.58924414286975Q1026.339565301189 446.98046888871994 1031.933715131756 451.6971050203743Q1037.5278649623224 456.4137411520286 1046.3030019514467 456.4137411520286ZM1138.2774065187064 321.934766793698L1138.2774065187064 470.0152034851713L1120.4529095095477 470.0152034851713L1120.4529095095477 321.934766793698L1138.2774065187064 321.934766793698ZM1277.5004393117824 329.6404339622728L1277.5004393117824 470.0152034851713L1258.8806955129844 470.0152034851713L1188.2134204474423 361.83421779112274L1188.2134204474423 470.0152034851713L1169.621098951735 470.0152034851713L1169.621098951735 329.6404339622728L1188.2134204474423 329.6404339622728L1259.0726516346213 438.2875988088686L1259.0726516346213 329.6404339622728L1277.5004393117824 329.6404339622728ZM1350.855100080244 471.9347647015423L1350.855100080244 471.9347647015423Q1329.6576597908902 471.9347647015423 1316.3304204886576 458.00423473130735Q1303.0306034895161 444.07370476107246 1303.0306034895161 420.76474713371096L1303.0306034895161 420.76474713371096L1303.0306034895161 417.4740707627893Q1303.0306034895161 401.9530472132756 1308.9538209571751 389.7501223377746Q1314.9044607279252 377.57461976536456 1325.5443143272382 370.6641993864291Q1336.2115902296428 363.7812013105847 1348.6338935298718 363.7812013105847L1348.6338935298718 363.7812013105847Q1368.9812424234037 363.7812013105847 1380.2518089938103 377.1632852189993Q1391.549797867308 390.572791430505 1391.549797867308 415.5545095464184L1391.549797867308 415.5545095464184L1391.549797867308 422.95853138099204L1320.8825228017658 422.95853138099204Q1321.26643504504 438.39728802123267 1329.8770382156185 447.88540489072335Q1338.5150636892877 457.37352176021403 1351.8148806884292 457.37352176021403L1351.8148806884292 457.37352176021403Q1361.2755752548292 457.37352176021403 1367.8295056935813 453.53439932747216Q1374.3834361323334 449.66785459163924 1379.2920283856251 443.3058802745241L1379.2920283856251 443.3058802745241L1390.178682712757 451.8067942327383Q1377.070821835253 471.9347647015423 1350.855100080244 471.9347647015423ZM1348.6338935298718 378.42471116118594L1348.6338935298718 378.42471116118594Q1337.8295061120125 378.42471116118594 1330.5077511867116 386.2949121483069Q1323.1859962614112 394.1376908323367 1321.4583911666773 408.31502153039077L1321.4583911666773 408.31502153039077L1373.6978785550582 408.31502153039077L1373.6978785550582 406.9713286789311Q1372.93005406851 393.36986634578835 1366.3761236297573 385.91099990503267Q1359.8221931910052 378.42471116118594 1348.6338935298718 378.42471116118594ZM1418.5333441088655 340.4448213801321L1436.3578411180242 340.4448213801321L1436.3578411180242 365.70076252695566L1455.8276763126437 365.70076252695566L1455.8276763126437 379.4941809817355L1436.3578411180242 379.4941809817355L1436.3578411180242 444.1833939734365Q1436.3578411180242 450.43567907818766 1438.9629599116706 453.5892439336542Q1441.5680787053166 456.71538648602973 1447.8477861131591 456.71538648602973L1447.8477861131591 456.71538648602973Q1450.9190840593524 456.71538648602973 1456.321277768282 455.5636497562072L1456.321277768282 455.5636497562072L1456.321277768282 470.0152034851713Q1449.2737458738916 471.9347647015423 1442.6375485258664 471.9347647015423L1442.6375485258664 471.9347647015423Q1430.6814243781846 471.9347647015423 1424.5936730919793 464.7226989886057Q1418.5333441088655 457.4832109725781 1418.5333441088655 444.1833939734365L1418.5333441088655 444.1833939734365L1418.5333441088655 379.4941809817355L1399.529688066793 379.4941809817355L1399.529688066793 365.70076252695566L1418.5333441088655 365.70076252695566L1418.5333441088655 340.4448213801321Z " fill="#fcedda" transform="matrix(0.6008289562005079,0,0,0.6008289562005079,0,61.51008484602032)"/></g></svg>